HIERARCHY
ROOT hip
{
  OFFSET 0.0 0.0 0.0
  CHANNELS 6 Xposition Yposition Zposition Zrotation Yrotation Xrotation
  JOINT abdomen
  {
    OFFSET 0.0 20.6881 -0.73152
    CHANNELS 3 Zrotation Xrotation Yrotation
    JOINT chest
    {
      OFFSET 0.0 11.7043 -0.48768
      CHANNELS 3 Zrotation Xrotation Yrotation
      JOINT neck
      {
        OFFSET 0.0 22.1894 -2.19456
        CHANNELS 3 Zrotation Xrotation Yrotation
        JOINT head
        {
          OFFSET -0.24384 7.07133 1.2192
          CHANNELS 3 Zrotation Xrotation Yrotation
          JOINT leftEye
          {
            OFFSET 4.14528 8.04674 8.04672
            CHANNELS 3 Zrotation Xrotation Yrotation
            End Site
            {
              OFFSET 1.0 0.0 0.0
            }
          }
          JOINT rightEye
          {
            OFFSET -3.6576 8.04674 8.04672
            CHANNELS 3 Zrotation Xrotation Yrotation
            End Site
            {
              OFFSET 1.0 0.0 0.0
            }
          }
        }
      }
      JOINT rCollar
      {
        OFFSET -2.68224 19.2634 -4.8768
        CHANNELS 3 Zrotation Xrotation Yrotation
        JOINT rShldr
        {
          OFFSET -8.77824 -1.95073 1.46304
          CHANNELS 3 Zrotation Xrotation Yrotation
          JOINT rForeArm
          {
            OFFSET -28.1742 -1.7115 0.48768
            CHANNELS 3 Zrotation Xrotation Yrotation
            JOINT rHand
            {
              OFFSET -22.5879 0.773209 7.07136
              CHANNELS 3 Zrotation Xrotation Yrotation
              JOINT rThumb1
              {
                OFFSET -1.2192 -0.487915 3.41376
                CHANNELS 3 Zrotation Xrotation Yrotation
                JOINT rThumb2
                {
                  OFFSET -3.37035 -0.52449 3.41376
                  CHANNELS 3 Zrotation Xrotation Yrotation
                  End Site
                  {
                    OFFSET -1.78271 -1.18214 1.43049
                  }
                }
              }
              JOINT rIndex1
              {
                OFFSET -7.75947 0.938293 5.60832
                CHANNELS 3 Zrotation Xrotation Yrotation
                JOINT rIndex2
                {
                  OFFSET -2.54057 -0.884171 1.56538
                  CHANNELS 3 Zrotation Xrotation Yrotation
                  End Site
                  {
                    OFFSET -1.62519 -0.234802 1.16502
                  }
                }
              }
              JOINT rMid1
              {
                OFFSET -8.24714 1.18213 3.41376
                CHANNELS 3 Zrotation Xrotation Yrotation
                JOINT rMid2
                {
                  OFFSET -3.10165 -0.590103 1.0647
                  CHANNELS 3 Zrotation Xrotation Yrotation
                  End Site
                  {
                    OFFSET -2.48547 -0.328903 0.83742
                  }
                }
              }
              JOINT rRing1
              {
                OFFSET -8.82822 0.546677 1.51678
                CHANNELS 3 Zrotation Xrotation Yrotation
                JOINT rRing2
                {
                  OFFSET -2.60934 -0.819778 -0.0198488
                  CHANNELS 3 Zrotation Xrotation Yrotation
                  End Site
                  {
                    OFFSET -2.33842 -0.294052 0.168128
                  }
                }
              }
              JOINT rPinky1
              {
                OFFSET -8.27202 -0.0477905 -0.4584
                CHANNELS 3 Zrotation Xrotation Yrotation
                JOINT rPinky2
                {
                  OFFSET -1.82734 -0.647385 -0.700984
                  CHANNELS 3 Zrotation Xrotation Yrotation
                  End Site
                  {
                    OFFSET -1.69225 -0.51767 -0.607171
                  }
                }
              }
            }
          }
        }
      }
      JOINT lCollar
      {
        OFFSET 2.68224 19.2634 -4.8768
        CHANNELS 3 Zrotation Xrotation Yrotation
        JOINT lShldr
        {
          OFFSET 8.77824 -1.95073 1.46304
          CHANNELS 3 Zrotation Xrotation Yrotation
          JOINT lForeArm
          {
            OFFSET 28.1742 -1.7115 0.48768
            CHANNELS 3 Zrotation Xrotation Yrotation
            JOINT lHand
            {
              OFFSET 22.5879 0.773209 7.07136
              CHANNELS 3 Zrotation Xrotation Yrotation
              JOINT lThumb1
              {
                OFFSET 1.2192 -0.487915 3.41376
                CHANNELS 3 Zrotation Xrotation Yrotation
                JOINT lThumb2
                {
                  OFFSET 3.37035 -0.52449 3.41376
                  CHANNELS 3 Zrotation Xrotation Yrotation
                  End Site
                  {
                    OFFSET 1.78271 -1.18214 1.43049
                  }
                }
              }
              JOINT lIndex1
              {
                OFFSET 7.75947 0.938293 5.60832
                CHANNELS 3 Zrotation Xrotation Yrotation
                JOINT lIndex2
                {
                  OFFSET 2.54057 -0.884171 1.56538
                  CHANNELS 3 Zrotation Xrotation Yrotation
                  End Site
                  {
                    OFFSET 1.62519 -0.234802 1.16502
                  }
                }
              }
              JOINT lMid1
              {
                OFFSET 8.24714 1.18213 3.41376
                CHANNELS 3 Zrotation Xrotation Yrotation
                JOINT lMid2
                {
                  OFFSET 3.10165 -0.590103 1.0647
                  CHANNELS 3 Zrotation Xrotation Yrotation
                  End Site
                  {
                    OFFSET 2.48547 -0.328903 0.83742
                  }
                }
              }
              JOINT lRing1
              {
                OFFSET 8.82822 0.546677 1.51678
                CHANNELS 3 Zrotation Xrotation Yrotation
                JOINT lRing2
                {
                  OFFSET 2.60934 -0.819778 -0.0198488
                  CHANNELS 3 Zrotation Xrotation Yrotation
                  End Site
                  {
                    OFFSET 2.33842 -0.294052 0.168128
                  }
                }
              }
              JOINT lPinky1
              {
                OFFSET 8.27202 -0.0477905 -0.4584
                CHANNELS 3 Zrotation Xrotation Yrotation
                JOINT lPinky2
                {
                  OFFSET 1.82734 -0.647385 -0.700984
                  CHANNELS 3 Zrotation Xrotation Yrotation
                  End Site
                  {
                    OFFSET 1.69225 -0.51767 -0.607171
                  }
                }
              }
            }
          }
        }
      }
    }
  }
  JOINT rButtock
  {
    OFFSET -8.77824 4.35084 1.2192
    CHANNELS 3 Zrotation Xrotation Yrotation
    JOINT rThigh
    {
      OFFSET 0.0 -1.70687 -2.19456
      CHANNELS 3 Zrotation Xrotation Yrotation
      JOINT rShin
      {
        OFFSET 0.0 -36.8199 0.73152
        CHANNELS 3 Zrotation Xrotation Yrotation
        JOINT rFoot
        {
          OFFSET 0.73152 -45.1104 -5.12064
          CHANNELS 3 Zrotation Xrotation Yrotation
          End Site
          {
            OFFSET -1.1221 -3.69964 12.103
          }
        }
      }
    }
  }
  JOINT lButtock
  {
    OFFSET 8.77824 4.35084 1.2192
    CHANNELS 3 Zrotation Xrotation Yrotation
    JOINT lThigh
    {
      OFFSET 0.0 -1.70687 -2.19456
      CHANNELS 3 Zrotation Xrotation Yrotation
      JOINT lShin
      {
        OFFSET 0.0 -36.8199 0.73152
        CHANNELS 3 Zrotation Xrotation Yrotation
        JOINT lFoot
        {
          OFFSET -0.73152 -45.1104 -5.12064
          CHANNELS 3 Zrotation Xrotation Yrotation
          End Site
          {
            OFFSET 1.1221 -3.69964 12.103
          }
        }
      }
    }
  }
}
MOTION
Frames: 4
Frame Time: 0.00833333
0.0 80.078 0.0 361.822 -79.8052 1445.81 -4.16329 0.530026 -1.77243 0.726704 -1.93406 -0.54978 -5.46324 2.22946 -6.37361 13.6317 -26.7518 -8.67067 -0.0 0.0 0.0 -0.0 0.0 0.0 0.0 0.0 0.0 0.0 0.0 0.0 0.0 0.0 0.0 -0.0263402 -4.62734 -0.651764 7.20027e-10 1.0984e-10 3.71144e-10 1.24264e-09 1.89503e-10 6.43e-10 7.20034e-10 1.0984e-10 3.71134e-10 7.73091 5.47488 0.417314 7.20031e-10 1.09834e-10 3.71147e-10 2.90554 0.965183 0.102902 7.20035e-10 1.09831e-10 3.71146e-10 10.2786 0.731801 0.0259123 7.20019e-10 1.09832e-10 3.71154e-10 2.22167 -0.733487 -0.20892 0.0 0.0 0.0 0.0 0.0 0.0 0.0 0.0 0.0 0.436779 -18.4885 2.69297 -2.78055e-10 1.5285e-09 8.99035e-10 -4.9868e-10 2.64665e-09 1.55127e-09 -2.78056e-10 1.52851e-09 8.99047e-10 -7.73091 5.47488 -0.417314 -2.78052e-10 1.5285e-09 8.99036e-10 -2.90554 0.965183 -0.102902 -2.78064e-10 1.5285e-09 8.99037e-10 -10.2786 0.731801 -0.0259123 -2.78055e-10 1.5285e-09 8.99033e-10 -2.22167 -0.733487 0.20892 -2.03217e-16 0.0 -3.88251e-19 11.9806 -14.5657 -4.69818 -0.491911 48.699 1.29483 -11.7007 -19.6038 -25.2516 2.03217e-16 0.0 3.88251e-19 -1.10335 -28.8042 20.054 0.496902 46.325 -0.773719 -2.59715 -9.27905 -11.3974
-0.9650000000000034 80.7779 0.040300000000002 361.593 -79.3314 1446.79 -4.29556 -0.163844 -1.8108 0.653701 -2.39568 -0.55855 -5.757 1.75156 -6.56018 13.7078 -27.7356 -8.86113 -0.0 0.0 0.0 -0.0 0.0 0.0 0.0 0.0 0.0 0.0 0.0 0.0 0.0 0.0 0.0 -0.0292053 -4.8724 -0.686443 1.05267e-09 1.36506e-10 1.23259e-10 1.8164e-09 2.35644e-10 2.13826e-10 1.05268e-09 1.36505e-10 1.2325e-10 7.73091 5.47488 0.417314 1.05268e-09 1.36497e-10 1.23262e-10 2.90554 0.965183 0.102902 1.05268e-09 1.36494e-10 1.23262e-10 10.2786 0.731801 0.0259123 1.05266e-09 1.36495e-10 1.23269e-10 2.22167 -0.733487 -0.20892 0.0 0.0 0.0 0.0 0.0 0.0 0.0 0.0 0.0 0.490952 -19.5127 2.8547 -1.96453e-10 2.14677e-09 1.96881e-09 -3.67911e-10 3.718e-09 3.40079e-09 -1.96454e-10 2.14678e-09 1.96882e-09 -7.73091 5.47488 -0.417314 -1.9645e-10 2.14677e-09 1.96881e-09 -2.90554 0.965183 -0.102902 -1.96462e-10 2.14677e-09 1.96882e-09 -10.2786 0.731801 -0.0259123 -1.96454e-10 2.14677e-09 1.96881e-09 -2.22167 -0.733487 0.20892 -2.03217e-16 0.0 -3.88251e-19 11.7288 -14.7687 -5.42828 -0.47223 47.9141 1.24238 -11.1574 -17.9143 -25.5981 2.03217e-16 0.0 3.88251e-19 -0.819609 -27.7147 20.9893 0.444666 44.3721 -0.710772 -2.6525 -7.87804 -12.95
-1.950000000000017 81.5627 0.1022000000000034 361.021 -78.8862 1448.18 -4.17592 -1.04492 -1.7416 0.507878 -2.77405 -0.539179 -6.07921 1.25839 -6.74853 13.6965 -28.6925 -9.06822 -0.0 0.0 0.0 -0.0 0.0 0.0 0.0 0.0 0.0 0.0 0.0 0.0 0.0 0.0 0.0 -0.0324894 -5.14739 -0.725378 1.31481e-09 1.72156e-10 -1.90252e-11 2.26967e-09 2.97082e-10 -3.2246e-11 1.31482e-09 1.72156e-10 -1.90364e-11 7.73091 5.47488 0.417314 1.31482e-09 1.72148e-10 -1.90235e-11 2.90554 0.965183 0.102902 1.31482e-09 1.72145e-10 -1.90231e-11 10.2786 0.731801 0.0259123 1.31481e-09 1.72146e-10 -1.90182e-11 2.22167 -0.733487 -0.20892 0.0 0.0 0.0 0.0 0.0 0.0 0.0 0.0 0.0 0.537934 -20.3558 2.98931 -3.68329e-11 1.75417e-09 1.87309e-09 -8.80262e-11 3.04263e-09 3.238e-09 -3.6835e-11 1.75418e-09 1.8731e-09 -7.73091 5.47488 -0.417314 -3.68297e-11 1.75418e-09 1.87309e-09 -2.90554 0.965183 -0.102902 -3.68419e-11 1.75418e-09 1.87309e-09 -10.2786 0.731801 -0.0259123 -3.68321e-11 1.75418e-09 1.87309e-09 -2.22167 -0.733487 0.20892 -2.03217e-16 0.0 -3.88251e-19 11.4809 -14.8856 -5.90041 -0.44819 46.8987 1.16976 -10.146 -15.7095 -25.4756 2.03217e-16 0.0 3.88251e-19 -0.663946 -26.7839 21.3751 0.396235 42.3951 -0.659466 -2.46096 -6.12878 -14.1511
-2.9460000000000264 82.4067 0.18489999999999895 360.296 -78.5209 1449.77 -3.84057 -2.08032 -1.60361 0.30669 -3.1005 -0.501333 -6.42836 0.747658 -6.93919 13.6135 -29.6517 -9.28796 -0.0 0.0 0.0 -0.0 0.0 0.0 0.0 0.0 0.0 0.0 0.0 0.0 0.0 0.0 0.0 -0.0363942 -5.45207 -0.768562 1.5853e-09 2.12002e-10 -1.47773e-10 2.73813e-09 3.65641e-10 -2.54644e-10 1.58531e-09 2.12005e-10 -1.47787e-10 7.73091 5.47488 0.417314 1.5853e-09 2.11998e-10 -1.47774e-10 2.90554 0.965183 0.102902 1.58531e-09 2.11996e-10 -1.47773e-10 10.2786 0.731801 0.0259123 1.5853e-09 2.11996e-10 -1.4777e-10 2.22167 -0.733487 -0.20892 0.0 0.0 0.0 0.0 0.0 0.0 0.0 0.0 0.0 0.579106 -21.0804 3.10587 2.02736e-10 7.55297e-10 1.18947e-09 3.38102e-10 1.31994e-09 2.06065e-09 2.02731e-10 7.55302e-10 1.18947e-09 -7.73091 5.47488 -0.417314 2.02738e-10 7.55301e-10 1.18947e-09 -2.90554 0.965183 -0.102902 2.02727e-10 7.55301e-10 1.18947e-09 -10.2786 0.731801 -0.0259123 2.02738e-10 7.55301e-10 1.18947e-09 -2.22167 -0.733487 0.20892 -2.03217e-16 0.0 -3.88251e-19 11.2641 -14.9113 -6.15525 -0.421886 45.6163 1.08237 -8.82694 -13.0917 -25.0555 2.03217e-16 0.0 3.88251e-19 -0.540207 -25.9837 21.3935 0.349507 40.3757 -0.61643 -2.04961 -4.03305 -15.1178
